<?xml version="1.0" encoding="utf-8"?>
<!-- Generator: Adobe Illustrator 24.2.1, SVG Export Plug-In . SVG Version: 6.00 Build 0)  -->
<svg version="1.1" id="Layer_1" xmlns="http://www.w3.org/2000/svg" xmlns:xlink="http://www.w3.org/1999/xlink" x="0px" y="0px"
	 viewBox="0 0 570.24 116.64" style="enable-background:new 0 0 570.24 116.64;" xml:space="preserve">
<style type="text/css">
	.st0{fill:#F3C716;stroke:#F3C716;stroke-miterlimit:10;}
	.st1{fill:#FFFFFF;}
</style>
<g>
	<path class="st0" d="M47.98,6.53c1.77,0.73,2.83,2.37,4.34,3.51c0.17-0.16,0.34-0.28,0.45-0.43c0.75-1.13,1.98-1.17,3.02-0.68
		c0.97,0.46,1.97,0.99,2.75,1.7c3.31,3.03,6.84,5.79,10.42,8.5c1.5,1.14,2.83,2.43,3.76,4.08c0.07,0.12,0.15,0.22,0.22,0.33
		c0.5,0.71,0.85,0.74,1.41,0.09c0.76-0.88,1.71-1.4,2.82-1.63c0.99-0.21,1.58,0.15,1.71,1.13c0.69,5.14,2.6,9.82,5.27,14.23
		c1.11,1.84,2.15,3.72,3.16,5.62c1.11,2.08,1.69,4.32,1.94,6.66c0.28,2.65,0.95,5.22,1.67,7.79c1.03,3.69,1.79,7.45,2.67,11.18
		c0.25,1.05,0.28,2.22,1.17,2.97c0.72,0.61,1.51,1.14,2.35,1.57c0.32,0.17,0.9,0.07,1.26-0.11c2.06-1.02,4.13-1,6.27-0.29
		c2.14,0.71,4.31,1.37,6.46,2.06c0.25,0.08,0.49,0.18,0.73,0.26c-0.81,1.08-1.62,2.1-2.36,3.17c-2.3,3.33-3.87,7.01-5.09,10.86
		c-1.72,5.44-2.9,11.01-3.97,16.61c-0.23,1.2-0.45,2.39-0.71,3.59c-0.43,2-1.13,2.51-3.18,2.14c-1.19-0.21-2.4-0.48-3.51-0.96
		c-2.95-1.27-5.85-2.67-8.77-4.01c-0.57-0.26-0.81-0.57-0.69-1.28c0.48-2.8,0.86-5.61,1.3-8.41c0.09-0.54,0.03-0.99-0.31-1.43
		c-1.1-1.39-2.17-2.8-3.26-4.2c-0.17-0.22-0.42-0.38-0.77-0.7c-0.06,0.51-0.12,0.87-0.15,1.22c-0.37,4.83-1.54,9.38-4.43,13.39
		c-3.91,5.42-10.95,7.44-17.06,4.76c-2.7-1.18-4.7-3.21-6.08-5.76c-3.6-6.63-4.11-13.49-1.12-20.48c0.77-1.81,1.74-3.54,2.65-5.29
		c0.24-0.46,0.27-0.8,0.03-1.28c-2.44-4.81-4.28-9.83-5.3-15.14c-0.23-1.18-0.37-2.37-0.67-3.53c-0.41-1.57-1.28-2.91-2.24-4.2
		c-0.74-1-1.43-2.03-2.19-3.01c-1.64-2.13-1.99-4.58-1.73-7.13c0.33-3.13,0.82-6.24,1.26-9.35c0.11-0.79,0.06-1.51-0.24-2.27
		c-1.06-2.65-1.2-5.44-1.04-8.25c0.06-0.97,0.27-1.93,0.49-2.87c0.1-0.44,0.29-0.93,0.59-1.25c0.69-0.73,0.7-1.51,0.48-2.41
		c-0.15-0.6-0.22-1.22-0.29-1.84c-0.09-0.78,0.16-1.46,0.51-2.16c0.27-0.53,0.31-1.18,0.38-1.79c0.05-0.44-0.01-0.89-0.01-1.33
		c-0.03-2.35,0.44-3.07,2.54-3.97C47.27,6.55,47.62,6.54,47.98,6.53z M76.03,42.22c-0.24,0-0.31,0.01-0.37-0.01
		c-0.15-0.04-0.29-0.1-0.44-0.16c-1.51-0.58-2.54-1.73-3.33-3.04c-1.27-2.1-2.48-4.25-3.57-6.46c-2.28-4.62-5.25-8.67-9.25-11.96
		c-2.48-2.04-4.6-4.42-6.44-7.06c-0.85-1.22-1.77-2.39-2.73-3.52C49.44,9.48,48.88,9,48.28,8.64c-1.2-0.71-2.36-0.21-2.66,1.13
		c-0.18,0.81-0.19,1.67-0.26,2.51c-0.04,0.42,0.19,0.63,0.61,0.72c0.71,0.16,1.43,0.33,2.1,0.59c1.51,0.58,2.45,1.82,3.26,3.12
		c2.2,3.52,4.82,6.69,7.61,9.74c2.08,2.27,3.92,4.73,5.05,7.61c1.3,3.32,2.49,6.68,3.72,10.03c0.07,0.19,0.09,0.41,0.13,0.62
		c-0.05,0.03-0.11,0.06-0.16,0.08c-0.24-0.32-0.53-0.62-0.71-0.97c-1.04-2.03-2.1-4.06-3.05-6.13c-1.34-2.93-2.74-5.83-4.85-8.3
		c-1.39-1.62-2.96-3.08-4.26-4.76c-1.77-2.27-3.36-4.68-5.03-7.03c-0.86-1.21-1.82-2.29-3.35-2.67c-1.03-0.25-1.34,0.03-1.17,1.05
		c0.25,1.44,0.52,2.88,0.7,4.33c0.11,0.93,0.08,1.87,0.11,2.81c-0.05,0.02-0.1,0.04-0.15,0.05c-0.52-0.91-1.04-1.81-1.57-2.72
		c-0.1,0.02-0.19,0.04-0.29,0.05c-0.14,0.41-0.38,0.81-0.4,1.22c-0.08,1.75-0.14,3.5-0.12,5.24c0.02,1.04,0.21,2.07,0.35,3.1
		c0.02,0.17,0.2,0.31,0.31,0.47c0.17-0.13,0.38-0.22,0.49-0.39c0.22-0.33,0.32-0.73,0.56-1.04c0.42-0.54,0.57-1.12,0.58-1.79
		c0.02-0.66,0.08-1.33,0.21-1.98c0.27-1.3,1.01-1.74,2.33-1.56c1.36,0.18,2.11,1.14,2.83,2.14c1.92,2.68,3.47,5.57,4.91,8.52
		c2.07,4.24,4.19,8.46,6.28,12.7c0.1,0.2,0.16,0.41,0.24,0.62c-0.4-0.1-0.71-0.25-0.92-0.49c-1.05-1.25-2.21-2.45-3.08-3.82
		c-0.98-1.57-1.83-3.25-2.48-4.98c-1.3-3.48-3.29-6.58-5.22-9.71c-0.48-0.77-0.99-1.53-1.56-2.23c-0.52-0.64-1.06-0.54-1.22,0.26
		c-0.14,0.71-0.1,1.5,0.05,2.21c1.28,6.01,3.43,11.72,5.91,17.33c2.47,5.59,4.96,11.19,6.58,17.11c1.37,5,3.69,9.49,6.89,13.54
		c2.45,3.1,5.23,5.86,8.61,7.96c1.32,0.82,2.75,1.53,3.86,2.58c1.58,1.5,2.92,3.27,4.36,4.92c0.22,0.25,0.44,0.51,0.67,0.76
		c0.08-0.01,0.16-0.02,0.24-0.03c1-3.46,2.2-6.82,3.97-9.96c1.78-3.16,4.04-5.97,6.45-8.78c-0.62-0.38-1.12-0.69-1.63-1
		c-0.97-0.59-1.56-1.41-1.7-2.56c-0.58-4.84-1.6-9.57-3.6-14.05c-0.67-1.49-1.07-3.04-1.18-4.68c-0.15-2.28-0.25-4.6-1.22-6.71
		c-0.94-2.03-1.93-4.05-3.13-5.93c-2.51-3.92-4.28-8.1-5.12-12.68c-0.14-0.76-0.22-1.53-0.33-2.3c-0.16-1.04-0.72-1.34-1.63-0.83
		c-0.46,0.26-0.86,0.62-1.28,0.94c-0.63,0.48-0.78,1.1-0.5,1.83c0.4,1.06,0.77,2.12,1.22,3.16c1.66,3.86,3.68,7.53,5.94,11.06
		c0.17,0.27,0.3,0.58,0.45,0.87c-0.29-0.03-0.49-0.11-0.61-0.25c-1.09-1.19-2.27-2.32-3.24-3.6c-2.16-2.83-3.48-6.11-4.71-9.42
		c-1.01-2.73-2.48-5.15-4.72-7.06c-1.77-1.51-3.59-2.97-5.38-4.46c-2.41-2-4.8-4.01-7.23-5.99c-0.91-0.74-1.39-0.7-2.3,0
		c-0.62,0.48-0.71,0.74-0.3,1.4c0.46,0.73,0.91,1.49,1.5,2.11c2.47,2.61,4.95,5.21,7.5,7.74c2.7,2.67,5.22,5.46,6.82,8.95
		c1.72,3.76,3.59,7.43,6.33,10.58C75.85,41.72,75.9,41.94,76.03,42.22z M46.12,29.83c-0.06,0-0.12,0-0.18,0
		c-0.12,0.48-0.28,0.95-0.35,1.43c-0.54,3.84-1.13,7.67-1.56,11.53c-0.38,3.36-0.08,6.52,2.42,9.26c1.96,2.14,2.93,4.88,3.4,7.76
		c0.47,2.93,1.02,5.85,2.13,8.63c1.78,4.46,3.72,8.82,6.85,12.55c0.63,0.75,1.05,1.76,1.31,2.73c0.46,1.77,0.61,3.55-0.31,5.31
		c-0.83,1.59-0.76,3.32-0.25,5c0.57,1.88,1.7,3.37,3.67,3.89c1.47,0.39,3.04,0.33,4.46-0.26c3.87-1.61,6.59-4.42,8.17-8.3
		c0.7-1.72,0.52-2.19-1.02-3.2c-0.13-0.09-0.27-0.16-0.39-0.25c-1.44-1.11-2.99-2.1-4.3-3.35c-5.5-5.21-9.05-11.6-11.12-18.84
		c-0.57-2-1.09-4.02-1.67-6.02c-0.21-0.72-0.48-0.83-1.14-0.48c-0.9,0.48-1.75,1.03-2.63,1.55c-0.25,0.15-0.51,0.29-0.76,0.43
		c-0.05-0.37-0.02-0.66,0.1-0.9c0.33-0.65,0.67-1.3,1.05-1.93c0.2-0.34,0.25-0.6,0.04-0.97c-1.09-1.91-2.12-3.84-3.22-5.74
		c-0.97-1.68-1.84-3.4-2.2-5.32c-0.1-0.56-0.05-1.15-0.07-1.72c0.09-0.02,0.17-0.04,0.26-0.07c0.17,0.31,0.36,0.62,0.52,0.94
		c1.21,2.46,2.36,4.96,3.65,7.39c0.7,1.33,1.6,2.55,2.44,3.8c0.12,0.19,0.42,0.26,0.63,0.38c0.05-0.26,0.19-0.55,0.13-0.78
		c-0.13-0.49-0.33-0.96-0.55-1.42c-3.37-7.26-6.37-14.67-9.15-22.18C46.36,30.38,46.24,30.11,46.12,29.83z"/>
</g>
<path class="st1" d="M119.92,68l-6.9-1.16c0.5-2.99,0.71-6.06,0.61-9.12c-0.77-23.48-19.72-42.87-43.14-44.15l0.38-6.99
	c13.11,0.72,25.42,6.29,34.66,15.68c9.3,9.45,14.65,21.96,15.09,35.22C120.74,61.02,120.5,64.55,119.92,68z"/>
<path class="st1" d="M42.3,105.28c-16.32-9.1-26.43-25.68-27.04-44.34c-0.45-13.8,4.42-27.02,13.72-37.22l5.17,4.71
	c-8.06,8.85-12.29,20.31-11.9,32.28c0.53,16.18,9.3,30.56,23.46,38.46L42.3,105.28z"/>
<g>
	<path class="st1" d="M155.97,82.06c0,5.41-0.73,11.34,4.37,14.56v0.31h-27.98v-0.31c5.1-3.22,4.37-9.15,4.37-14.56V43.37
		c0-5.41,0.73-11.34-4.37-14.56V28.5h27.98v0.31c-5.2,3.22-4.37,9.15-4.37,14.56v11.86h18.62V43.37c0-5.41,0.73-11.34-4.37-14.56
		V28.5h27.98v0.31c-5.1,3.22-4.37,9.15-4.37,14.56v38.69c0,5.41-0.73,11.34,4.37,14.56v0.31h-27.98v-0.31
		c5.1-3.22,4.37-9.15,4.37-14.56V65.73h-18.62V82.06z"/>
	<path class="st1" d="M246.14,95.06c-4.99,2.18-10.82,3.22-16.33,3.22c-7.07,0-14.98-0.83-20.8-5.1
		c-6.66-4.78-9.46-12.58-9.46-20.38c0-14.56,11.02-25.06,25.48-25.06c16.43,0,24.34,9.46,24.65,25.48h-32.24
		c0,8.94,6.03,15.39,15.29,15.39c5.82,0,12.27-2.6,17.47-5.3L246.14,95.06z M232,64.38c0-4.06-1.98-7.59-6.97-7.59
		c-4.58,0-7.07,3.43-7.59,7.59H232z"/>
	<path class="st1" d="M263.2,28.5c3.64,0,6.45-0.52,9.36-1.66h0.31v58.65c0,4.78-0.31,7.8,3.54,11.13v0.31h-25.06v-0.31
		c3.85-3.33,3.54-6.34,3.54-11.13V40.04c0-5.2,0.31-7.59-3.33-11.23V28.5H263.2z"/>
	<path class="st1" d="M289.2,28.5c3.64,0,6.45-0.52,9.36-1.66h0.31v58.65c0,4.78-0.31,7.8,3.54,11.13v0.31h-25.06v-0.31
		c3.85-3.33,3.54-6.34,3.54-11.13V40.04c0-5.2,0.31-7.59-3.33-11.23V28.5H289.2z"/>
	<path class="st1" d="M304.7,73.43c0-15.91,11.44-25.69,27.04-25.69c6.66,0,13.1,1.56,18.2,5.93c5.41,4.47,8.63,11.65,8.63,18.72
		c0,16.43-11.86,25.9-27.66,25.9C316.03,98.28,304.7,88.82,304.7,73.43z M341.1,74.57c0-6.45-1.35-16.85-9.78-16.85
		c-7.38,0-9.15,6.86-9.15,13c0,6.97,0.83,17.89,9.98,17.89C340.06,88.61,341.1,80.71,341.1,74.57z"/>
	<path class="st1" d="M438.6,95.06c-7.18,1.98-14.66,3.22-22.15,3.22c-21.63,0-39.1-12.27-39.1-35.36
		c0-22.36,17.16-36.09,38.69-36.09c5.41,0,10.92,0.62,16.12,2.08v14.46h-0.52c-3.54-3.33-9.98-5.51-15.29-5.51
		c-13.52,0-19.34,9.46-19.34,22.05c0,12.79,4.47,27.56,19.55,27.56c1.35,0,2.81,0,4.16-0.31V71.76c0-4.68-0.21-7.18-3.95-10.09
		v-0.31h21.84V95.06z"/>
	<path class="st1" d="M439.85,73.43c0-15.91,11.44-25.69,27.04-25.69c6.66,0,13.1,1.56,18.2,5.93c5.41,4.47,8.63,11.65,8.63,18.72
		c0,16.43-11.86,25.9-27.66,25.9C451.19,98.28,439.85,88.82,439.85,73.43z M476.25,74.57c0-6.45-1.35-16.85-9.78-16.85
		c-7.38,0-9.15,6.86-9.15,13c0,6.97,0.83,17.89,9.98,17.89C475.21,88.61,476.25,80.71,476.25,74.57z"/>
	<path class="st1" d="M531.48,67.71c0-2.18,0.1-4.26-1.25-6.34c-1.25-1.98-3.33-3.02-5.62-3.02c-7.28,0-8.63,8.42-8.63,14.14
		c0,4.06,0.62,8.63,3.33,11.86c1.87,2.29,4.99,3.85,8.01,3.85h1.46l-4.89,8.84c-1.35,0.62-2.81,0.62-4.26,0.62
		c-13.42,0-22.88-11.44-22.88-24.44c0-13.31,8.74-25.58,22.98-25.58c4.16,0,8.01,1.25,11.75,3.54V39.94
		c-0.31-4.89,0.1-7.9-3.74-11.13V28.5h12.58c3.43,0,6.03,0,8.84-1.66h0.31v54.91c0,6.03,0,10.71,4.58,14.87v0.31h-22.57V67.71z"/>
</g>
</svg>
